# xmcd CD database file
#
# Track frame offsets:
#	150
#	21757
#	40364
#	73318
#	102624
#
# Disc length: 1757 seconds
#
# Revision: 2
# Processed by: cddbd v1.5.2PL0 Copyright (c) Steve Scherf et al.
# Submitted via: jetAudio 5
#
DISCID=4606db05
DTITLE=Feeling Station - Live In Studio
DYEAR=1900
DGENRE=
TTITLE0=Feeling Station
TTITLE1=Ʈ ó ȥϱ
TTITLE2=Ա
TTITLE3=Դ ϸ
TTITLE4= ٰ
EXTD=Ű 罺 Զ 'ʸ ̼'ø, ι
EXTD= 60' ŬĶ ӵͽ, Ŀ 罺  
EXTD= ط . ù ٹ [Live in Studio] 뷡 , 
EXTD=Ʃ   ѹ Ǿ.  60' Ĺ  
EXTD=ٹ µ ̺  ϴ.  Ǳϳ
EXTD= Ƣ°ͺ ġ Ʋ װó  ̡ 츮 ü
EXTD= Ӱ 췯ִ 带 ߴ. ƲŸ 罺 
EXTD=ط ȯ ҡ   ̸ó ʸ ̼
EXTD= ä  ̴.
EXTT0= . ϰ ſ   ʸ̼(
EXTT0=) ͼ ä .
EXTT1=ٹ ŸƲ. ߵ  ε Ű  ǳ
EXTT1=.λ     Ѱ. 3. Ա -
EXTT1= 4ÿ  ο  ũ߶.Գ Ҽ 
EXTT1= Ա ִ.
EXTT2= 4ÿ  ο  ũ߶.Գ Ҽ
EXTT2= Ա ִ.
EXTT3=60' â ϵ ޸ .߹ݿ Ǵ ְ Ư¡.
EXTT4= 12 ο 罺.  Ͻ λ 
EXTT4=  Ű ô.
PLAYORDER=
